<svg version="1.2" xmlns="http://www.w3.org/2000/svg" viewBox="0 0 106 40" width="106" height="40">
	<title>flipkart logo-svg</title>
	<defs>
		<linearGradient id="g1" x2="1" gradientUnits="userSpaceOnUse" gradientTransform="matrix(5.146,5.128,-1.81,1.816,91.463,26.966)">
			<stop offset=".041" stop-color="#fff300"/>
			<stop offset=".273" stop-color="#fff300"/>
			<stop offset=".502" stop-color="#ffe500"/>
			<stop offset=".813" stop-color="#f2a930"/>
		</linearGradient>
		<linearGradient id="g2" x2="1" gradientUnits="userSpaceOnUse" gradientTransform="matrix(5.155,-5.136,1.819,1.826,92.01,36.4)">
			<stop offset=".188" stop-color="#f2a930"/>
			<stop offset=".498" stop-color="#ffe500"/>
			<stop offset=".727" stop-color="#fff300"/>
			<stop offset=".959" stop-color="#fff300"/>
		</linearGradient>
		<linearGradient id="g3" x2="1" gradientUnits="userSpaceOnUse" gradientTransform="matrix(5.137,5.118,-1.832,1.839,87.703,31.791)">
			<stop offset=".188" stop-color="#f2a930"/>
			<stop offset=".498" stop-color="#ffe500"/>
			<stop offset=".727" stop-color="#fff300"/>
			<stop offset=".959" stop-color="#fff300"/>
		</linearGradient>
		<linearGradient id="g4" x2="1" gradientUnits="userSpaceOnUse" gradientTransform="matrix(5.143,-5.124,1.818,1.825,87.179,32.638)">
			<stop offset=".041" stop-color="#fff300"/>
			<stop offset=".273" stop-color="#fff300"/>
			<stop offset=".502" stop-color="#ffe500"/>
			<stop offset=".813" stop-color="#f2a930"/>
		</linearGradient>
	</defs>
	<style>
		.s0 { fill: #2a55e5 } 
		.s1 { fill: url(#g1) } 
		.s2 { fill: url(#g2) } 
		.s3 { fill: url(#g3) } 
		.s4 { fill: url(#g4) } 
		.s5 { fill: #9e9e9e } 
		.s6 { fill: #ffc200 } 
	</style>
	<path id="Layer" fill-rule="evenodd" class="s0" d="m28.9 5.5h-6.7l-0.7 4.6h5.2q0.4 0 0.7 0.3c0.1 0.2 0.2 0.5 0.2 0.7l-0.3 1.4c0 0.5-0.4 0.8-0.8 0.8h-5.5l-1.1 6.3c0 0.5-0.4 0.8-0.8 0.8h-2.2c-0.3 0-0.5-0.1-0.7-0.3-0.2-0.2-0.2-0.5-0.2-0.7l2.6-16.5c0.1-0.4 0.4-0.7 0.9-0.7h9.6c0.3 0 0.5 0.1 0.7 0.3q0.3 0.3 0.2 0.7l-0.2 1.6c-0.1 0.4-0.5 0.7-0.9 0.7zm55.7 2.9l-1.8 11.3c-0.1 0.4-0.4 0.7-0.9 0.7h-1.3q-0.3 0-0.6-0.3c-0.2-0.1-0.2-0.4-0.2-0.6v-1.4l-0.1 0.2c0 0-0.6 0.5-1.1 1-0.9 0.7-1.9 1-2 1.1q-0.8 0.3-1.7 0.3c-1.3 0-2.3-0.5-3-1.5q-1.1-1.4-1.1-3.8 0-1.2 0.2-2.3 0.3-1.2 0.9-2.3 0.6-1.2 1.5-2 0.9-0.9 2.3-1.4 1.4-0.6 3.2-0.6 2.2 0 5 0.6c0.4 0.1 0.7 0.5 0.7 1zm-4.1 1.9l-0.1-0.1q-0.9-0.2-2-0.2-1.9 0-2.8 1.5-1 1.5-1 3.3 0 1.1 0.4 1.8 0.4 0.8 1.2 0.8 0.8 0 1.9-1 1-1 1.8-2.4zm14.3-3.1c0.2 0.2 0.3 0.5 0.3 0.8l-0.4 2.1c-0.1 0.3-0.4 0.6-0.7 0.7q-1 0.1-2 0.7-1.3 0.9-2.1 2l-1 6.1c0 0.5-0.4 0.8-0.8 0.8h-2.1c-0.2 0-0.5-0.1-0.6-0.3q-0.3-0.3-0.2-0.7l1.8-11.5c0.1-0.5 0.4-0.8 0.8-0.8h1.4c0.2 0 0.4 0.1 0.6 0.3 0.2 0.2 0.2 0.4 0.2 0.6l-0.1 1.8 0.2-0.2c0 0 1-1 1.6-1.5 0.6-0.4 1.4-0.9 2.3-1.1 0.3-0.1 0.6 0 0.8 0.2zm-39.2 1.1q1.1 1.4 1.1 3.8 0 1.5-0.4 3-0.4 1.4-1.3 2.7-0.9 1.3-2.5 2.1-1.7 0.8-3.9 0.8-0.8 0-2.1-0.2h-0.1l-0.2 1.6q0 0 0 0l-0.4 2.8c-0.1 0.4-0.5 0.7-0.9 0.7h-2q-0.4 0-0.7-0.3-0.2-0.3-0.2-0.7l2.7-16.7c0.1-0.5 0.4-0.8 0.8-0.8h1.4c0.2 0 0.4 0.1 0.6 0.3 0.1 0.2 0.2 0.4 0.2 0.6v1.4l0.1-0.2c0 0 1.3-1.5 3.2-2.1q0.8-0.3 1.6-0.3 1.9 0 3 1.5zm-2.8 4.4q0-1.1-0.4-1.8-0.4-0.8-1.1-0.8-0.8 0-1.9 1-1 1.1-1.9 2.4l-0.5 3.7v0.1q0.9 0.2 2.1 0.2 1.9 0 2.8-1.5 0.9-1.4 0.9-3.3zm51-5.3c0.2 0.2 0.3 0.5 0.2 0.8l-0.2 1.2c-0.1 0.4-0.5 0.7-0.9 0.7h-1.8l-0.9 5.7q0 0.2 0 0.3c0 0.7 0.2 0.9 0.3 1 0.1 0.1 0.4 0.2 0.5 0.2q0.1 0 0.3 0 0.1 0 0.3 0c0.3 0 0.3 0 0.4 0q0 0.1 0.1 0.1 0.1 0.1 0.2 0.1c0.2 0.2 0.3 0.5 0.3 0.7l-0.2 1.3c0 0.3-0.2 0.5-0.4 0.7q-0.1 0-0.1 0c-0.1 0-0.2 0.1-0.3 0.1-0.2 0.1-1.2 0.4-1.9 0.4q-1.7 0-2.6-0.8-0.9-0.8-0.9-2.5 0-0.6 0.1-1.2l1-6.1h-0.6c-0.2 0-0.5-0.1-0.6-0.3-0.2-0.2-0.3-0.5-0.2-0.7l0.2-1.3c0-0.4 0.4-0.7 0.8-0.7h0.9l0.8-2.6c0.1-0.4 0.4-0.7 0.8-0.7h1.6c0.3 0 0.5 0.1 0.7 0.3 0.2 0.2 0.2 0.5 0.2 0.7l-0.4 2.3h1.6c0.3 0 0.6 0.1 0.7 0.3zm-33.2 0.8q-0.3 1.2-1.2 2.5-1.3 2.1-2.5 3.2l-0.1 0.1 2.1 5.2q0 0.1 0 0.3c0 0.5-0.4 0.9-0.8 0.9h-2.3c-0.3 0-0.6-0.2-0.8-0.6l-1.7-4.4h-1.3l-0.7 4.3c-0.1 0.4-0.4 0.7-0.9 0.7h-2c-0.3 0-0.5-0.1-0.7-0.3q-0.2-0.3-0.2-0.7l2.7-16.5c0-0.4 0.4-0.7 0.8-0.7h2.1c0.2 0 0.5 0.1 0.6 0.3 0.2 0.2 0.2 0.4 0.2 0.7l-1.5 9.3 0.1-0.1c1-0.1 1.3-0.2 1.4-0.3l0.1-0.1q0.7-0.4 1.8-2.1 0.7-1.2 1-2.2c0.1-0.3 0.5-0.6 0.8-0.6h2.2c0.3 0 0.5 0.2 0.7 0.4 0.1 0.2 0.2 0.5 0.1 0.7zm-31.2-2.6q-0.5-0.4-0.5-1.2 0-1.1 0.6-1.7 0.6-0.7 1.9-0.7 1 0 1.4 0.4 0.5 0.4 0.5 1.2 0 1.1-0.6 1.7-0.7 0.7-1.9 0.7-1 0-1.4-0.4zm2.7 1.8c0.2 0.2 0.2 0.5 0.2 0.7l-1.8 11.5c-0.1 0.5-0.4 0.8-0.9 0.8h-2c-0.3 0-0.5-0.1-0.7-0.3-0.1-0.2-0.2-0.5-0.2-0.7l1.9-11.6c0-0.4 0.4-0.7 0.8-0.7h2.1c0.2 0 0.4 0.1 0.6 0.3zm-6.5-4.9c0.1 0.2 0.2 0.4 0.2 0.7l-2 12.8q-0.1 0.3-0.1 0.4 0 0.6 0.3 0.9c0.1 0.1 0.5 0.2 0.5 0.2q0.3 0 0.5 0.3c0.2 0.1 0.3 0.4 0.3 0.6l-0.2 1.2q0 0.4-0.2 0.5-0.2 0.2-0.6 0.3c-0.2 0.1-0.8 0.3-1.2 0.3q-1.7 0-2.5-0.8-0.9-0.7-0.9-2.1 0-0.4 0.1-0.8c0-0.1 2.2-13.9 2.2-14.1 0.1-0.4 0.4-0.7 0.9-0.7h2q0.4 0 0.7 0.3z"/>
	<path id="Layer" class="s1" d="m94.7 29.5c0 0 1.3 0.7 1.9 0.9 0.6 0.3 0.7 1.3 0 1.6-0.7 0.4-0.9 0.4-0.9 0.4 0 0 0.1-0.3 0.1-0.5 0-0.5-1.4-0.9-2.3-1.1 0 0-0.8-2.3-1.1-2.9-0.3-0.6-1-0.9-1-0.9h1.6c0 0 0.5 0 0.8 0.6 0.2 0.6 0.9 1.9 0.9 1.9z"/>
	<path id="Layer" class="s2" d="m94.6 34.5c0 0-0.6 1.2-0.9 1.9-0.3 0.6-1.3 0.7-1.6 0-0.4-0.7-0.4-0.8-0.4-0.8 0 0 0.2 0 0.5 0 0.5 0 0.9-1.4 1.1-2.4 0 0 2.3-0.7 2.9-1 0.6-0.3 0.9-1 0.9-1v1.8c0 0 0 0.3-0.6 0.5-0.5 0.3-1.9 1-1.9 1z"/>
	<path id="Layer" class="s3" d="m89.6 34.4c0 0-1.3-0.7-1.9-0.9-0.6-0.3-0.7-1.3 0-1.6 0.7-0.4 0.9-0.4 0.9-0.4 0 0-0.1 0.3-0.1 0.6 0.1 0.5 1.4 0.8 2.4 1 0 0 0.7 2.3 1 2.9 0.4 0.8 1 0.9 1 0.9h-1.8c0 0-0.3 0-0.6-0.6-0.2-0.6-0.9-1.9-0.9-1.9z"/>
	<path id="Layer" class="s4" d="m89.7 29.4c0 0 0.7-1.3 0.9-1.9 0.3-0.6 1.3-0.7 1.6 0 0.4 0.7 0.4 0.8 0.4 0.8 0 0-0.3 0-0.5 0-0.5 0.1-0.9 1.4-1.1 2.4 0 0-2.3 0.7-2.9 1-0.9 0.4-0.9 1-0.9 1v-1.8c0 0 0-0.3 0.6-0.6 0.6-0.2 1.9-0.9 1.9-0.9z"/>
	<path id="Layer" class="s5" d="m20.9 35.6h-5.9l1.3-8.1h5.9l-0.3 1.6h-4l-0.2 1.7h3.4l-0.2 1.5h-3.5l-0.3 1.8h4z"/>
	<path id="Layer" class="s5" d="m27.8 35.6h-2.1l-0.8-1.7-1.4 1.7h-2l2.6-3-1.5-3h2l0.8 1.8 1.5-1.8h1.9l-2.6 3z"/>
	<path id="Layer" fill-rule="evenodd" class="s5" d="m33.1 29.4q0.9 0 1.4 0.7 0.5 0.7 0.5 1.7 0 0.8-0.2 1.4-0.2 0.7-0.6 1.3-0.4 0.6-1.2 0.9-0.7 0.4-1.7 0.4-0.4 0-1-0.1l-0.1 0.7-0.2 1.6h-1.8l1.3-8.4h1.4v1.3q0.8-1.5 2.2-1.5zm-0.6 1.6q-0.4 0-0.8 0.4-0.5 0.5-0.9 1.1l-0.2 1.7q0.4 0.1 0.9 0.1 0.8 0 1.2-0.7 0.5-0.6 0.5-1.5 0-0.5-0.2-0.8-0.2-0.3-0.5-0.3z"/>
	<path id="Layer" class="s5" d="m38.7 34.2l-0.1 1.3q-0.7 0.3-1.3 0.3-0.8 0-1.2-0.4-0.4-0.3-0.4-1 0-0.1 0.1-0.3l1-6.9h1.8l-1 6.4q0 0.1 0 0.2 0 0.3 0.1 0.4 0.1 0.1 0.4 0.1 0.3 0 0.6-0.1z"/>
	<path id="Layer" fill-rule="evenodd" class="s5" d="m42.1 35.8q-1.2-0.1-1.9-0.7-0.7-0.7-0.7-1.8 0-1.7 1-2.8 1-1.1 2.6-1.1 1.3 0 2 0.7 0.7 0.6 0.7 1.8 0 1.8-1 2.8-0.9 1.1-2.7 1.1zm0.2-1.5q0.8 0 1.2-0.6 0.5-0.6 0.5-1.6 0-1.2-1-1.2-0.8 0-1.2 0.6-0.5 0.6-0.5 1.6 0 0.6 0.2 0.9 0.3 0.2 0.8 0.3z"/>
	<path id="Layer" class="s5" d="m46.3 35.6l1-6h1.4v1.4q0.9-1.6 2.3-1.6h0.1l-0.4 1.9q-0.5 0-1.1 0.3-0.6 0.4-1 0.9l-0.5 3.1z"/>
	<path id="Layer" fill-rule="evenodd" class="s5" d="m57.1 31.3q-0.1 2.1-3.2 2.1-0.5 0-0.9 0 0.1 0.5 0.4 0.7 0.3 0.3 1.1 0.3 0.9 0 1.9-0.4l-0.3 1.5q-1 0.3-2.1 0.3-1.5 0-2.2-0.7-0.6-0.6-0.6-1.9 0-1.6 0.9-2.7 1-1 2.6-1 1.2 0 1.8 0.5 0.6 0.4 0.6 1.3zm-4 0.9q0.1 0.1 0.4 0.1 1.8 0 1.8-0.9 0-0.2-0.2-0.4-0.2-0.2-0.5-0.2-0.6 0-1 0.4-0.3 0.4-0.5 1z"/>
	<path id="Layer" fill-rule="evenodd" class="s6" d="m62.1 35.6h-1.9l1.3-8.1h3.4q1.5 0 2.1 0.5 0.7 0.6 0.7 1.6 0 0.6-0.1 1-0.1 0.5-0.4 0.9-0.2 0.5-0.6 0.8-0.4 0.3-1.1 0.5-0.6 0.2-1.5 0.2h-1.4zm0.6-4.1h1.3q1.7 0 1.7-1.6 0-0.5-0.3-0.7-0.3-0.3-1-0.3h-1.3z"/>
	<path id="Layer" class="s6" d="m70.9 34.2l-0.1 1.3q-0.7 0.3-1.3 0.3-0.8 0-1.2-0.4-0.4-0.3-0.4-1 0-0.1 0.1-0.3l1-6.9h1.8l-1 6.4q0 0.1 0 0.2 0 0.3 0.1 0.4 0.1 0.1 0.4 0.1 0.2 0 0.6-0.1z"/>
	<path id="Layer" class="s6" d="m78.1 29.6l-1 6h-1.4l0.1-1.2q-1 1.4-2.5 1.4-0.8 0-1.2-0.5-0.4-0.4-0.4-1.2 0-0.3 0-0.5l0.7-4h1.8l-0.6 3.5q0 0.2 0 0.4 0 0.7 0.5 0.7 0.3 0 0.8-0.5 0.5-0.4 0.9-1l0.5-3.1z"/>
	<path id="Layer" class="s6" d="m78.4 35.5l0.3-1.5q0.1 0.1 0.7 0.2 0.6 0.1 1.2 0.1 1.2 0 1.2-0.5 0-0.3-0.3-0.4-0.3-0.1-0.7-0.2-0.5-0.1-0.9-0.2-0.4-0.2-0.7-0.5-0.3-0.4-0.3-0.9 0-1.1 0.8-1.6 0.7-0.6 2.2-0.6 0.5 0 1 0.1 0.5 0.1 0.7 0.1 0.3 0.1 0.3 0.1l-0.3 1.5q-0.2-0.1-0.7-0.2-0.5-0.1-1-0.1-1.2 0-1.2 0.5 0 0.2 0.3 0.4 0.3 0.1 0.7 0.2 0.4 0 0.9 0.2 0.4 0.1 0.7 0.5 0.3 0.3 0.3 0.9 0 1.1-0.8 1.6-0.8 0.6-2.2 0.6-0.6 0-1.1-0.1-0.6-0.1-0.8-0.1-0.3-0.1-0.3-0.1z"/>
</svg>